<?xml version="1.0" encoding="UTF-8" standalone="no"?>
<!-- Generator: Adobe Illustrator 25.3.1, SVG Export Plug-In . SVG Version: 6.00 Build 0)  -->

<svg
   version="1.1"
   id="Layer_1"
   x="0px"
   y="0px"
   viewBox="0 0 599.99997 599.99997"
   xml:space="preserve"
   sodipodi:docname="Simpit_icon.svg"
   inkscape:export-filename="D:\Workspace\KerbalSimpitRevamped\distrib\icon\Simpit_icon.png"
   inkscape:export-xdpi="20.48"
   inkscape:export-ydpi="20.48"
   inkscape:version="1.1 (c68e22c387, 2021-05-23)"
   width="600"
   height="600"
   xmlns:inkscape="http://www.inkscape.org/namespaces/inkscape"
   xmlns:sodipodi="http://sodipodi.sourceforge.net/DTD/sodipodi-0.dtd"
   xmlns:xlink="http://www.w3.org/1999/xlink"
   xmlns="http://www.w3.org/2000/svg"
   xmlns:svg="http://www.w3.org/2000/svg"><defs
   id="defs19"><linearGradient
     inkscape:collect="always"
     id="linearGradient4962"><stop
       style="stop-color:#ff7f2a;stop-opacity:1;"
       offset="0"
       id="stop4958" /><stop
       style="stop-color:#ff7f2a;stop-opacity:0;"
       offset="1"
       id="stop4960" /></linearGradient><linearGradient
     id="linearGradient4794"
     inkscape:swatch="solid"><stop
       style="stop-color:#ff0000;stop-opacity:1;"
       offset="0"
       id="stop4792" /></linearGradient><radialGradient
     inkscape:collect="always"
     xlink:href="#linearGradient4962"
     id="radialGradient4964"
     cx="300"
     cy="300"
     fx="300"
     fy="300"
     r="300"
     gradientUnits="userSpaceOnUse" /></defs><sodipodi:namedview
   id="namedview17"
   pagecolor="#ffffff"
   bordercolor="#666666"
   borderopacity="1.0"
   inkscape:pageshadow="2"
   inkscape:pageopacity="0.0"
   inkscape:pagecheckerboard="0"
   showgrid="false"
   inkscape:zoom="0.73381546"
   inkscape:cx="496.71889"
   inkscape:cy="211.90614"
   inkscape:window-width="1920"
   inkscape:window-height="1017"
   inkscape:window-x="-8"
   inkscape:window-y="457"
   inkscape:window-maximized="1"
   inkscape:current-layer="layer3"
   width="600px"
   fit-margin-top="0"
   fit-margin-left="0"
   fit-margin-right="0"
   fit-margin-bottom="0" />
<style
   type="text/css"
   id="style2">
	.st0{fill:#FFFFFF;}
</style>

<g
   inkscape:groupmode="layer"
   id="layer2"
   inkscape:label="background"
   style="display:inline"><rect
     style="fill:#008000;fill-opacity:1;stroke-width:2.72802;stroke-dasharray:2.72802, 2.72802"
     id="rect1177"
     width="600"
     height="600"
     x="0"
     y="0"
     rx="4.8657503"
     ry="6.1179652" /></g><g
   inkscape:groupmode="layer"
   id="layer3"
   inkscape:label="highlight"
   style="display:inline;opacity:1"><circle
     style="opacity:0.991639;fill:url(#radialGradient4964);fill-opacity:1;stroke-width:13.3041;stroke-dasharray:13.3041, 13.3041"
     id="path2221"
     cx="300"
     cy="300"
     r="300" /></g><g
   inkscape:groupmode="layer"
   id="layer1"
   inkscape:label="Icon"
   style="display:inline;opacity:1"><g
     id="g14"
     style="fill:#ffffff"
     transform="translate(14.954055,18.801509)">
	<g
   id="g10"
   style="fill:#ffffff">
		<g
   id="g8"
   style="fill:#ffffff">
			<path
   d="m 104.3,519 c -0.7,-0.7 -1.3,-1.8 -2.1,-2.1 -7.1,-1.9 -7.4,-7.1 -7.3,-13.2 0.4,-13 0.4,-25.9 0.2,-38.9 -0.1,-5.1 2.3,-8 6.7,-9.9 7.7,-3.4 15.4,-6.9 23.1,-10.5 6,-2.8 9.1,-11.6 6,-17.8 -4,-8 -8.3,-15.9 -12.7,-23.6 -2.3,-4.1 -1.9,-6.9 1.1,-10.7 8.3,-10.5 15.9,-21.6 23.9,-32.3 4.6,-6.1 9,-7.6 16.2,-5.3 7,2.2 14.3,2.5 21.4,4.2 7.8,1.9 15.7,-6.6 16.1,-15.7 0.3,-8.1 1.3,-16.1 3.1,-24.1 0.6,-2.8 2.1,-4.2 4.8,-5.1 14,-4.5 27.9,-9.1 41.9,-13.8 4.4,-1.4 7.8,-0.8 11.1,2.9 5.8,6.6 11.9,13 18.3,19 6.8,6.5 14,4.9 17.9,-3.5 3.9,-8.3 6.9,-17.2 7.3,-26 0.5,-10.9 -5.5,-19.6 -14.8,-25.9 -14.2,-9.5 -29.2,-17.7 -44.1,-25.9 -17.1,-9.5 -33.9,-19.6 -48.2,-33.1 -9.1,-8.6 -16.5,-18.9 -17.8,-31.9 -1,-10.1 2.6,-19.1 8.8,-27.1 17.6,-22.6 42.6,-34.2 67.7,-45.6 2.4,-1.1 5.1,-1.3 7.6,-2.2 2.5,-0.9 4.6,-0.2 6.3,2.5 6.6,10.4 6.7,10.7 -4.5,15.4 -16.4,6.9 -30.8,16.6 -43.1,29.6 -16.1,16.9 -12.6,36 7.1,48.3 16.9,10.5 35.9,15.7 54.8,21 12.5,3.5 24.8,8 37,12.6 12.1,4.6 23.5,10.4 33.7,18.7 9.5,7.8 16.3,17.3 20.3,28.7 4.8,13.3 7.2,27.1 6.7,41.3 -0.3,8.2 -1.3,16.4 -3.3,24.5 -2.7,10.9 6.1,15.4 16,13.3 7.1,-1.5 14.3,-2.1 21.3,-4.4 6.1,-2 9.6,0.3 13.4,5.7 5.9,8.4 12.2,16.5 18.4,24.7 2.5,3.3 4.9,6.7 7.3,10 2.3,3.2 2,6.2 0.2,9.7 -4.2,8.1 -9.5,15.6 -12.9,24.1 -2.6,6.5 0.3,13.6 6.6,16.4 8,3.6 16,7.3 23.9,11 3.5,1.7 5.3,4.4 5.3,8.7 -0.2,14.3 -0.1,28.6 0.2,42.9 0.1,4.5 -1.3,7.1 -5.5,8.7 -2.5,1 -5.5,1.6 -6.8,4.5 -27.9,0 -55.9,0 -83.8,0 3,-9.8 6,-19.5 9,-29.3 0.5,-1.6 0.8,-3.1 0.2,-4.8 -5.7,-17.2 -11.4,-34.5 -17.2,-51.8 -1.2,-3.5 -2.2,-7.2 -5.6,-9.7 -13.7,-9.9 -27.2,-20.1 -40.9,-30 -3.1,-2.3 -6.2,-4.2 -10.4,-4.2 -18.6,-0.1 -37.2,-0.3 -55.8,-0.6 -3.7,-0.1 -6.8,0.8 -9.8,3 -7.1,5.2 -13.9,10.5 -20.5,16.4 -6.9,6.1 -14.9,11.1 -22.5,16.4 -2.6,1.8 -4.1,4.1 -5.1,7 -5.1,15.3 -10.2,30.7 -15.7,45.9 -2.5,6.9 -3.7,13.1 -0.7,20.5 2.7,6.8 5.9,13.7 6.2,21.3 -28.8,0.1 -57.4,0.1 -86,0.1 z"
   id="path4"
   style="fill:#ffffff" />
			<path
   id="path6"
   d="m 361.07422,43.400391 c -6.8,0.05 -13.57344,0.648828 -20.27344,1.798828 C 326.20078,47.699219 312,52.4 298,57.5 c -2.9,1.1 -4.69922,0.699609 -7.19922,-0.900391 C 283.50078,51.799609 275.7,48.1 269.5,48.5 c -12.5,0.2 -21.39961,3.100391 -30.09961,6.900391 -1.2,0.6 -3.30117,0.499218 -2.70117,2.699218 0.4,1.6 1.9,2.201172 3.5,2.201172 7.4,0.1 12.60156,4.39961 17.60156,9.09961 4.6,4.2 6.3,10.20039 9,15.40039 6.8,13 12.6,26.698439 20,39.398439 5.4,9.4 7.89883,18.40117 3.79883,28.70117 -0.6,1.7 -1.3,3.39961 -2,5.09961 -0.3,1 -0.80039,2.00078 0.0996,2.80078 1,0.9 1.80117,0.0996 2.70117,-0.40039 5.1,-2.8 9.69961,-6.39961 14.09961,-10.09961 9.4,-7.8 16.29961,-17.10156 15.59961,-30.10156 -0.3,-4.9 1.79961,-7.99883 5.59961,-10.29883 16.7,-10.299999 31.3,-22.901171 44,-37.701171 C 376.19922,65.799219 380.7,58.5 384.5,51 c 1.6,-3.2 1,-5.499609 -3,-6.099609 -6.8,-1.05 -13.62578,-1.55 -20.42578,-1.5 z M 331.69922,61.5 a 11.9,11.9 0 0 1 11.90039,11.900391 11.9,11.9 0 0 1 -0.11719,0.736328 c -0.0335,0.584807 -0.12524,1.162929 -0.27344,1.730469 a 11.9,11.9 0 0 1 -11.50976,9.433593 11.9,11.9 0 0 1 -5.31055,-1.416015 c -0.29508,-0.130915 -0.57899,-0.275681 -0.85156,-0.433594 A 11.9,11.9 0 0 1 319.80078,73.400391 11.9,11.9 0 0 1 331.69922,61.5 Z"
   style="fill:#ffffff" />
		</g>
	</g>
	
</g></g></svg>
